# xmcd CD database file
#
# Track frame offsets:
#	150
#	25425
#	46802
#	60860
#
# Disc length: 1133 seconds
#
# Revision: 0
# Processed by: cddbd v1.5.1PL0 Copyright (c) Steve Scherf et al.
# Submitted via: CDex 1.50Beta7
#
DISCID=27046b04
DTITLE=ARB - Hard-Boiled City
DYEAR=2001
DGENRE=Rock
TTITLE0=Hard-Boiled City (Single Mix)
TTITLE1=Loveless Town
TTITLE2=共犯者よ
TTITLE3=Hard-Boiled City (Hard-Boiled Mix)
EXTD=YEAR: 2001
EXTT0=
EXTT1=
EXTT2=
EXTT3=
PLAYORDER=
